<?xml version="1.0" encoding="UTF-8" standalone="no"?>
<!-- Created with Inkscape (http://www.inkscape.org/) -->

<svg
   width="400"
   height="400"
   viewBox="0 0 400 400.00002"
   version="1.1"
   id="svg5"
   inkscape:version="1.1 (c4e8f9e, 2021-05-24)"
   sodipodi:docname="radar.svg"
   inkscape:export-filename="/Users/marek/Programming/netlify/netlify-paleontology-radar/src/assets/radar.png"
   inkscape:export-xdpi="96"
   inkscape:export-ydpi="96"
   xmlns:inkscape="http://www.inkscape.org/namespaces/inkscape"
   xmlns:sodipodi="http://sodipodi.sourceforge.net/DTD/sodipodi-0.dtd"
   xmlns="http://www.w3.org/2000/svg"
   xmlns:svg="http://www.w3.org/2000/svg">
  <sodipodi:namedview
     id="namedview7"
     pagecolor="#ffffff"
     bordercolor="#666666"
     borderopacity="1.0"
     inkscape:pageshadow="2"
     inkscape:pageopacity="0.0"
     inkscape:pagecheckerboard="0"
     inkscape:document-units="px"
     showgrid="false"
     units="px"
     width="400px"
     showguides="true"
     inkscape:guide-bbox="true"
     inkscape:zoom="0.60519814"
     inkscape:cx="18.175866"
     inkscape:cy="380.867"
     inkscape:window-width="1365"
     inkscape:window-height="997"
     inkscape:window-x="0"
     inkscape:window-y="25"
     inkscape:window-maximized="0"
     inkscape:current-layer="layer1">
    <sodipodi:guide
       position="200,200"
       orientation="0,1"
       id="guide17"
       inkscape:label=""
       inkscape:locked="false"
       inkscape:color="rgb(0,0,255)" />
    <sodipodi:guide
       position="199.50584,195.97926"
       orientation="1,0"
       id="guide19" />
  </sodipodi:namedview>
  <defs
     id="defs2" />
  <g
     inkscape:label="Warstwa 1"
     inkscape:groupmode="layer"
     id="layer1">
    <path
       d="m 195.50584,232.00045 c -6.74998,-0.85264 -13.04201,-4.04136 -17.92121,-9.08219 -5.36006,-5.53761 -8.22462,-12.09457 -8.61939,-19.72972 -0.76101,-14.71619 9.06786,-27.66947 23.71996,-31.26038 1.95739,-0.47933 2.99713,-0.57339 6.49976,-0.58552 5.60951,-0.0228 9.35546,0.78537 13.58953,2.91758 10.39012,5.23241 16.66456,14.86144 17.1087,26.25588 0.44294,11.34712 -5.13388,21.56226 -15.03353,27.53962 -5.52167,3.33395 -12.6574,4.78888 -19.34382,3.94428 z m -31.64013,-68.41317 c -1.34882,-0.6697 -13.22509,-12.54575 -13.86871,-13.8691 -0.42625,-0.87706 -0.47934,-1.40295 -0.40805,-4.04703 0.0683,-2.50787 0.17218,-3.21291 0.59918,-4.03454 0.60068,-1.15563 5.3037,-5.7643 8.66148,-8.48809 7.38342,-5.98911 17.0879,-10.70594 26.35471,-12.8097 5.11378,-1.16087 8.15082,-1.47266 14.3485,-1.47266 6.19767,0 9.23471,0.31172 14.34841,1.47266 9.26604,2.10354 18.96423,6.8171 26.356,12.8097 3.79236,3.07449 8.24229,7.50782 8.71048,8.67801 0.52029,1.3005 0.75011,6.28453 0.34661,7.53634 -0.38833,1.20531 -12.6047,13.52345 -14.11733,14.23443 -1.36998,0.6439 -3.74322,0.65984 -5.12078,0.038 -0.58627,-0.26621 -1.64232,-1.18241 -2.57543,-2.23429 -2.16557,-2.44135 -5.554,-5.21581 -8.63501,-7.07027 -13.71376,-8.25434 -31.09254,-6.88665 -43.44103,3.41876 -1.23141,1.02775 -2.95071,2.67083 -3.82058,3.65151 -0.93311,1.05188 -1.98893,1.96793 -2.57528,2.23429 -1.36937,0.62193 -3.86388,0.60068 -5.16356,-0.0456 z m -35.68726,-35.51311 c -1.28473,-0.65151 -13.89684,-13.38732 -14.21653,-14.35609 -0.14713,-0.4452 -0.22601,-2.0713 -0.1805,-3.72068 0.0607,-2.38667 0.17519,-3.11219 0.59158,-3.91432 0.98938,-1.9033 10.01462,-10.275142 15.91233,-14.760332 9.40793,-7.154683 22.13133,-13.784829 33.5175,-17.465924 25.61736,-8.281955 53.55531,-7.397612 78.30493,2.478663 9.18495,3.665244 19.2519,9.313282 26.71276,14.987261 5.89779,4.48519 14.92302,12.857032 15.91241,14.760332 0.41638,0.80213 0.52636,1.52765 0.59158,3.91432 0.0456,1.65332 -0.038,3.27518 -0.18127,3.72259 -0.34509,1.04717 -13.21326,13.95508 -14.41008,14.45528 -1.11513,0.46568 -3.47813,0.45051 -4.67989,-0.0303 -0.64467,-0.25786 -1.77543,-1.25962 -3.44538,-3.0522 -8.78457,-9.42946 -21.52252,-17.49966 -34.66722,-21.96378 -9.5594,-3.246499 -17.9944,-4.618901 -28.38771,-4.618901 -10.3933,0 -18.82831,1.372402 -28.3877,4.618901 -13.14478,4.46412 -25.88273,12.53432 -34.66731,21.96378 -1.66994,1.79258 -2.80061,2.79434 -3.44537,3.0522 -1.2952,0.51802 -3.78357,0.48161 -4.87404,-0.0683 z M 92.245995,91.992757 c -1.42344,-0.647717 -13.44984,-12.826084 -13.82897,-14.003412 -0.16838,-0.523325 -0.24878,-2.043925 -0.20024,-3.801765 0.0607,-2.384616 0.17521,-3.112265 0.59082,-3.910828 0.75465,-1.450596 8.5158,-8.917756 14.2974,-13.756082 23.780255,-19.900673 52.271265,-32.651745 82.656935,-36.992988 9.30646,-1.329625 11.85596,-1.489277 23.79149,-1.489277 11.93558,0 14.485,0.160032 23.79146,1.489277 30.3856,4.341243 58.87668,17.092315 82.65687,36.992988 5.7816,4.838326 13.54258,12.305486 14.29738,13.756082 0.41562,0.798563 0.5256,1.526212 0.59082,3.910828 0.0455,1.75784 -0.038,3.278515 -0.20023,3.801765 -0.40425,1.255523 -12.42449,13.370267 -13.91057,14.020017 -1.4239,0.622684 -3.74534,0.609026 -5.15247,-0.03034 -0.68109,-0.308683 -2.49506,-1.881691 -5.02817,-4.358534 -10.77056,-10.531031 -21.38586,-18.164063 -34.49999,-24.807633 -16.22436,-8.21908 -32.2927,-12.750238 -51.50729,-14.524839 -7.17364,-0.662119 -20.0538,-0.357225 -28.32901,0.67122 -15.80629,1.965199 -30.91824,6.591466 -45.25278,13.853164 -13.11414,6.643494 -23.72944,14.276525 -34.50007,24.807638 -2.53311,2.476768 -4.34777,4.049773 -5.02809,4.358457 -1.38256,0.62724 -3.870415,0.633307 -5.234165,0.01522 z"
       id="path26127"
       style="fill:#000000;stroke:none;stroke-width:7.58441"
       inkscape:connector-curvature="0" />
  </g>
</svg>
